<?xml version="1.0" encoding="UTF-8" standalone="no"?>
<svg
   enable-background="new 0 0 88.061 100"
   viewBox="0 0 88.061 100"
   version="1.1"
   id="svg10"
   sodipodi:docname="AlarmClock.svg"
   inkscape:version="1.1 (c68e22c387, 2021-05-23)"
   xmlns:inkscape="http://www.inkscape.org/namespaces/inkscape"
   xmlns:sodipodi="http://sodipodi.sourceforge.net/DTD/sodipodi-0.dtd"
   xmlns="http://www.w3.org/2000/svg"
   xmlns:svg="http://www.w3.org/2000/svg">
  <defs
     id="defs14" />
  <sodipodi:namedview
     id="namedview12"
     pagecolor="#ffffff"
     bordercolor="#666666"
     borderopacity="1.0"
     inkscape:pageshadow="2"
     inkscape:pageopacity="0.0"
     inkscape:pagecheckerboard="true"
     showgrid="false"
     showguides="false"
     inkscape:snap-bbox="true"
     inkscape:bbox-paths="true"
     inkscape:bbox-nodes="true"
     inkscape:snap-bbox-edge-midpoints="true"
     inkscape:snap-bbox-midpoints="true"
     inkscape:object-paths="true"
     inkscape:snap-intersection-paths="true"
     inkscape:snap-smooth-nodes="true"
     inkscape:snap-midpoints="true"
     inkscape:snap-object-midpoints="true"
     inkscape:snap-center="true"
     inkscape:snap-text-baseline="true"
     inkscape:snap-page="true"
     inkscape:zoom="5.6568543"
     inkscape:cx="19.180271"
     inkscape:cy="28.90299"
     inkscape:window-width="1920"
     inkscape:window-height="1017"
     inkscape:window-x="-8"
     inkscape:window-y="1072"
     inkscape:window-maximized="1"
     inkscape:current-layer="svg10" />
  <g
     id="g2697">
    <path
       d="m6.755 25.72c7.382-9.081 18.004-15.425 30.093-17.245l-5.514-6.871c-2.868-2.967-9.069-1.697-16.868 2.807s-11.998 9.237-10.864 13.204l3.153 8.105z"
       id="path2" />
    <path
       d="m81.306 25.72c-7.382-9.081-18.004-15.425-30.093-17.245l5.514-6.871c2.868-2.967 9.069-1.697 16.868 2.807s11.998 9.237 10.864 13.204l-3.153 8.105z"
       id="path6" />
    <path
       d="m44.03 11.939c-24.278 0-44.03 19.752-44.03 44.03s19.752 44.031 44.03 44.031 44.03-19.752 44.03-44.031-19.751-44.03-44.03-44.03zm0 82.057c-20.968 0-38.026-17.059-38.026-38.026s17.058-38.027 38.026-38.027 38.026 17.059 38.026 38.026-17.058 38.027-38.026 38.027z"
       id="path8" />
    <g
       id="g2688">
      <path
         d="m44.03 23.948c-1.658 0-3.002 1.344-3.002 3.002v26.018h-26.018c-1.658 0-3.002 1.344-3.002 3.002s1.344 3.002 3.002 3.002h29.02c1.658 0 3.002-1.344 3.002-3.002v-29.02c0-1.658-1.344-3.002-3.002-3.002z"
         id="path4" />
      <path
         style="fill:#ff0000;stroke:#ff0000;stroke-width:6;stroke-linecap:round;stroke-linejoin:miter;stroke-miterlimit:3.2;stroke-dasharray:none;stroke-opacity:1"
         d="M 44.03,55.972 V 26.491694"
         id="path1861" />
      <ellipse
         style="fill:#ff0000;stroke:#ff0000;stroke-width:2.54746;stroke-linecap:round;stroke-linejoin:round;stroke-miterlimit:3.2;stroke-dasharray:none;stroke-opacity:1;paint-order:markers stroke fill"
         id="path2603"
         cx="44.029999"
         cy="65.969498"
         rx="1.7262713"
         ry="1.72627" />
    </g>
  </g>
</svg>
